<?xml version="1.0" encoding="UTF-8"?>
<svg id="takimax" xmlns="http://www.w3.org/2000/svg" width="5.07cm" height="1.2cm" version="1.1" viewBox="0 0 143.3 33.8">

  <!-- T (blue) -->
  <path fill="#4285F4" transform="translate(8,0)" d="M0,3.5 L3.0,0.2 L20.2,0.2 L20.2,4.8 Q20.2,5.8 19.2,5.8 L14.2,5.8 L12.0,26.6 L6.8,26.6 L9.0,5.8 L3.8,5.8 Q2.0,5.8 1.2,4.8 Z"/>

  <!-- A (red) - taki - evenodd ile delik şeffaf -->
  <path fill="#EA4335" fill-rule="evenodd" transform="translate(-64.4,0)"
    d="M108.7,26.6V7.8h-5.3v1.8c-1.3-1.6-3.1-2.4-5.2-2.4s-4.7,1-6.3,3.1c-1.5,1.9-2.2,4.1-2.2,6.8s.7,5,2.2,6.9c1.6,2.1,3.7,3.1,6.4,3.1s3.9-.8,5.1-2.3h0v1.7h5.3Z
     M102.8,20.8c-.9,1.1-2,1.7-3.3,1.7s-2.4-.6-3.2-1.7c-.8-1-1.2-2.2-1.2-3.6s.4-2.5,1.2-3.5c.9-1.1,1.9-1.7,3.2-1.7s2.4.6,3.3,1.7c.8,1,1.2,2.2,1.2,3.5s-.4,2.5-1.2,3.6Z"/>

  <!-- K (yellow) -->
  <path fill="#FBBC05" transform="matrix(0.02664,0,0,-0.02664,44.148,26.6)" d="M469 0 233 310V0H62V702H233V394L467 702H668L396 358L678 0Z"/>

  <!-- ı (green) -->
  <path fill="#34A853" transform="translate(11.2,0)" d="M51.1,26.6h5.3V7.9h-5.3v18.7Z"/>

  <!-- M (blue) -->
  <path fill="#4285F4" transform="translate(10,0)" d="M81.3,7.2c-2.4,0-4.2,1-5.5,2.9-1.2-2-3-2.9-5.4-2.9s-3.5.8-4.6,2.3h0v-1.7h-5.3v18.7h5.3v-9.2c0-1.7.1-3,.3-3.7.4-1.4,1.2-2.2,2.5-2.2s2,.7,2.3,2.1c.2.6.2,1.8.2,3.5v9.5h5.3v-9.2c0-1.7.1-2.9.3-3.7.4-1.5,1.3-2.2,2.5-2.2s1.9.6,2.2,1.9c.2.7.3,1.8.3,3.3v9.8h5.3v-11.7c0-5.1-2-7.7-5.9-7.7Z"/>

  <!-- A (red) - max - evenodd ile delik şeffaf -->
  <path fill="#EA4335" fill-rule="evenodd" transform="translate(10,0)"
    d="M108.7,26.6V7.8h-5.3v1.8c-1.3-1.6-3.1-2.4-5.2-2.4s-4.7,1-6.3,3.1c-1.5,1.9-2.2,4.1-2.2,6.8s.7,5,2.2,6.9c1.6,2.1,3.7,3.1,6.4,3.1s3.9-.8,5.1-2.3h0v1.7h5.3Z
     M102.8,20.8c-.9,1.1-2,1.7-3.3,1.7s-2.4-.6-3.2-1.7c-.8-1-1.2-2.2-1.2-3.6s.4-2.5,1.2-3.5c.9-1.1,1.9-1.7,3.2-1.7s2.4.6,3.3,1.7c.8,1,1.2,2.2,1.2,3.5s-.4,2.5-1.2,3.6Z"/>

  <!-- X (yellow) -->
  <path fill="#FBBC05" transform="translate(10,0)" d="M133.3,2.3h-6.2l-6.3,9.3-2.8-3.6h-6.3l6.2,7.9-12.3,18h6.3l9.4-13.7,5,6.4h6.3l-8.4-10.7,9.2-13.5Z"/>

</svg>
